<?xml version="1.0" encoding="utf-8"?>
<!-- Generator: Adobe Illustrator 24.1.1, SVG Export Plug-In . SVG Version: 6.00 Build 0)  -->
<svg version="1.1" id="Layer_1" xmlns="http://www.w3.org/2000/svg" xmlns:xlink="http://www.w3.org/1999/xlink" x="0px" y="0px"
	 viewBox="0 0 145.9 133.7" style="enable-background:new 0 0 145.9 133.7;" xml:space="preserve">
<style type="text/css">
	.st0{fill:none;stroke:#121213;stroke-width:3;}
	.st1{fill:#121213;}
</style>
<path class="st0" d="M73.4,13.3c18.1,0,34.3,6.5,45.4,17c8.5,8,13.8,18.7,13.8,30.3c0,29.1-30.4,47.1-58.6,47.1
	c-11.5,0-20-2.3-26-3.8c-5.9,3.6-9.4,6.1-25.3,10.8c3.1-8,4.4-16.7,3.6-25.2c-5-5.9-12-14.2-12-28.8C14.2,34.6,40.8,13.3,73.4,13.3z
	 M73.4,1.5c-37.5,0-71,25-71,59.2c0,12.2,4.3,23.9,12.1,33.3c0.3,10.8-6.1,26.4-11.8,37.7c15.4-2.8,37.3-8.9,47.2-15
	c7.9,1.9,15.9,2.9,24,3c41.9,0,70.5-28.6,70.5-58.9C144.4,26.3,110.7,1.5,73.4,1.5z"/>
<path class="st1" d="M79.4,84.2c0,3.3-2.7,6.1-6.1,6.1c-3.3,0-6.1-2.7-6.1-6.1c0-3.3,2.7-6.1,6.1-6.1c0,0,0,0,0,0
	C76.7,78.1,79.4,80.8,79.4,84.2z"/>
<path class="st1" d="M86.2,35.7c-2.9-3-7.3-4.6-12.4-4.6c-10.6,0-17.4,7.5-17.4,19.2h9.7c0-7.2,4-9.8,7.5-9.8
	c3.4-0.1,6.4,2.5,6.6,5.9c0.3,4.1-1.9,6.2-4.7,8.8c-6.8,6.5-7,9.7-6.9,16.8h9.7c-0.1-3.2,0.1-5.8,4.5-10.6c3.3-3.5,7.4-7.9,7.4-14.7
	C90.5,42.7,89,38.7,86.2,35.7z"/>
</svg>
