<svg xmlns="http://www.w3.org/2000/svg" xmlns:xlink="http://www.w3.org/1999/xlink" width="617" height="474" viewBox="0 0 617 474">
  <defs>
    <filter id="Rectangle_56" x="0" y="19" width="617" height="453" filterUnits="userSpaceOnUse">
      <feOffset dx="-6" dy="6" input="SourceAlpha"/>
      <feGaussianBlur stdDeviation="4" result="blur"/>
      <feFlood flood-opacity="0.161"/>
      <feComposite operator="in" in2="blur"/>
      <feComposite in="SourceGraphic"/>
    </filter>
    <filter id="Rectangle_61" x="0" y="21" width="617" height="453" filterUnits="userSpaceOnUse">
      <feOffset dx="-6" dy="6" input="SourceAlpha"/>
      <feGaussianBlur stdDeviation="4" result="blur-2"/>
      <feFlood flood-opacity="0.161"/>
      <feComposite operator="in" in2="blur-2"/>
      <feComposite in="SourceGraphic"/>
    </filter>
  </defs>
  <g id="Component_4_1" data-name="Component 4 – 1" transform="translate(18)">
    <g id="Group_25" data-name="Group 25" transform="translate(-1177 -1984)">
      <g transform="matrix(1, 0, 0, 1, 1159, 1984)" filter="url(#Rectangle_56)">
        <path id="Rectangle_56-2" data-name="Rectangle 56" d="M0,0H593a0,0,0,0,1,0,0V414a15,15,0,0,1-15,15H15A15,15,0,0,1,0,414V0A0,0,0,0,1,0,0Z" transform="translate(18 25)" fill="#222"/>
      </g>
      <g id="Group_18" data-name="Group 18" transform="translate(1177 1984)">
        <path id="Rectangle_57" data-name="Rectangle 57" d="M15,0H578a15,15,0,0,1,15,15V27a0,0,0,0,1,0,0H0a0,0,0,0,1,0,0V15A15,15,0,0,1,15,0Z" fill="#2d425e"/>
        <circle id="Ellipse_18" data-name="Ellipse 18" cx="6" cy="6" r="6" transform="translate(25 8)" fill="#ff5757"/>
        <circle id="Ellipse_19" data-name="Ellipse 19" cx="6" cy="6" r="6" transform="translate(48 8)" fill="#ffc47d"/>
        <circle id="Ellipse_20" data-name="Ellipse 20" cx="6" cy="6" r="6" transform="translate(71 8)" fill="#7bffa0"/>
      </g>
      <line id="Line_54" data-name="Line 54" y2="137" transform="translate(1225.5 2053.5)" fill="none" stroke="#fff" stroke-linecap="round" stroke-width="3"/>
      <line id="Line_55" data-name="Line 55" x2="55.02" transform="translate(1243.74 2059.5)" fill="none" stroke="#7bffa0" stroke-linecap="round" stroke-width="5"/>
      <line id="Line_56" data-name="Line 56" x2="75.98" transform="translate(1243.74 2076.619)" fill="none" stroke="#ffc47d" stroke-linecap="round" stroke-width="5"/>
      <line id="Line_57" data-name="Line 57" x2="20.96" transform="translate(1243.74 2093.738)" fill="none" stroke="#ff5757" stroke-linecap="round" stroke-width="5"/>
      <line id="Line_58" data-name="Line 58" x2="63.074" y2="0.238" transform="translate(1287.877 2093.5)" fill="none" stroke="#7bffa0" stroke-linecap="round" stroke-width="5"/>
      <line id="Line_59" data-name="Line 59" x2="49.78" transform="translate(1319.458 2110.857)" fill="none" stroke="#9169ff" stroke-linecap="round" stroke-width="5"/>
      <line id="Line_60" data-name="Line 60" x2="62.88" transform="translate(1288.07 2127.977)" fill="none" stroke="#fff" stroke-linecap="round" stroke-width="5"/>
      <line id="Line_61" data-name="Line 61" x2="49.78" transform="translate(1319.458 2145.096)" fill="none" stroke="#ffc47d" stroke-linecap="round" stroke-width="5"/>
      <line id="Line_62" data-name="Line 62" x2="131" transform="translate(1238.5 2162.216)" fill="none" stroke="#9169ff" stroke-linecap="round" stroke-width="5"/>
      <path id="Path_126" data-name="Path 126" d="M0,0,65.8.085l155.834.2" transform="translate(1224.936 2218.215)" fill="none" stroke="#fff" stroke-linecap="round" stroke-width="8"/>
      <line id="Line_66" data-name="Line 66" x2="84.32" transform="translate(1225.801 2242.215)" fill="none" stroke="#fff" stroke-linecap="round" stroke-width="8"/>
      <line id="Line_63" data-name="Line 63" x2="65.5" transform="translate(1238.5 2179.334)" fill="none" stroke="#7bffa0" stroke-linecap="round" stroke-width="5"/>
      <line id="Line_64" data-name="Line 64" x2="29.385" y2="0.166" transform="translate(1326.389 2179.334)" fill="none" stroke="#fff" stroke-linecap="round" stroke-width="5"/>
      <rect id="Rectangle_58" data-name="Rectangle 58" width="497" height="30" rx="7" transform="translate(1225 2271)" fill="#353535"/>
      <rect id="Rectangle_59" data-name="Rectangle 59" width="497" height="30" rx="7" transform="translate(1225 2317)" fill="#d97979"/>
      <rect id="Rectangle_60" data-name="Rectangle 60" width="497" height="30" rx="7" transform="translate(1225 2362)" fill="#353535"/>
      <g transform="matrix(1, 0, 0, 1, 1159, 1984)" filter="url(#Rectangle_61)">
        <path id="Rectangle_61-2" data-name="Rectangle 61" d="M0,0H593a0,0,0,0,1,0,0V414a15,15,0,0,1-15,15H15A15,15,0,0,1,0,414V0A0,0,0,0,1,0,0Z" transform="translate(18 27)" fill="#222" opacity="0.86"/>
      </g>
      <rect id="Rectangle_62" data-name="Rectangle 62" width="265" height="160" rx="10" transform="translate(1341 2146)" fill="#fff"/>
      <circle id="Ellipse_21" data-name="Ellipse 21" cx="10.5" cy="10.5" r="10.5" transform="translate(1596 2136)" fill="#c55a5a"/>
      <path id="Path_127" data-name="Path 127" d="M8.556-4.5H6.791L4.73-1.1H4.268L2.206-4.5H.441L3.031-.409.441,3.747H2.206L4.284.25h.429l2.078,3.5H8.556L5.967-.409Z" transform="translate(1602 2146.806)" fill="#fff"/>
      <line id="Line_67" data-name="Line 67" x2="118" transform="translate(1369.5 2171.5)" fill="none" stroke="#9169ff" stroke-linecap="round" stroke-width="8"/>
      <g id="Group_20" data-name="Group 20" transform="translate(-1 6)">
        <line id="Line_69" data-name="Line 69" x2="118" transform="translate(1368.5 2212.5)" fill="none" stroke="#090909" stroke-linecap="round" stroke-width="4" opacity="0.65"/>
        <line id="Line_70" data-name="Line 70" x2="175" transform="translate(1368.5 2221.5)" fill="none" stroke="#090909" stroke-linecap="round" stroke-width="4" opacity="0.65"/>
        <line id="Line_71" data-name="Line 71" x2="155" transform="translate(1368.5 2230.5)" fill="none" stroke="#090909" stroke-linecap="round" stroke-width="4" opacity="0.65"/>
        <line id="Line_72" data-name="Line 72" x2="166" transform="translate(1368.5 2239.5)" fill="none" stroke="#090909" stroke-linecap="round" stroke-width="4" opacity="0.65"/>
        <line id="Line_73" data-name="Line 73" x2="132" transform="translate(1368.5 2248.5)" fill="none" stroke="#090909" stroke-linecap="round" stroke-width="4" opacity="0.65"/>
        <line id="Line_74" data-name="Line 74" x2="139" transform="translate(1368.5 2257.5)" fill="none" stroke="#090909" stroke-linecap="round" stroke-width="4" opacity="0.65"/>
      </g>
      <line id="Line_68" data-name="Line 68" x2="74" transform="translate(1369.5 2188.5)" fill="none" stroke="#9169ff" stroke-linecap="round" stroke-width="8"/>
    </g>
  </g>
</svg>
