<?xml version="1.0" encoding="utf-8"?>
<!-- Generator: Adobe Illustrator 24.1.1, SVG Export Plug-In . SVG Version: 6.00 Build 0)  -->
<svg version="1.1" id="Layer_1" xmlns="http://www.w3.org/2000/svg" xmlns:xlink="http://www.w3.org/1999/xlink" x="0px" y="0px"
	 viewBox="0 0 285 32" style="enable-background:new 0 0 285 32;" xml:space="preserve">
<style type="text/css">
	.st0{enable-background:new    ;}
	.st1{fill:#FFFFFF;}
</style>
<g class="st0">
	<path class="st1" d="M8.9,10.1V25H6V10.1H0.8V7.8h13.4l-0.3,2.3H8.9z"/>
	<path class="st1" d="M26.9,13.3c1,1.2,1.6,2.9,1.6,5.1c0,2.1-0.5,3.8-1.6,5.1c-1,1.3-2.5,1.9-4.4,1.9c-1.9,0-3.4-0.6-4.4-1.8
		c-1-1.2-1.6-2.9-1.6-5.1c0-2.1,0.5-3.8,1.6-5.1c1.1-1.3,2.5-1.9,4.4-1.9C24.4,11.5,25.9,12.1,26.9,13.3z M20.2,14.8
		c-0.5,0.8-0.8,2-0.8,3.6c0,1.6,0.3,2.8,0.8,3.6c0.5,0.8,1.3,1.2,2.3,1.2s1.8-0.4,2.3-1.2s0.8-2,0.8-3.6c0-1.6-0.3-2.8-0.8-3.6
		c-0.5-0.8-1.3-1.2-2.3-1.2C21.5,13.6,20.7,14,20.2,14.8z"/>
	<path class="st1" d="M43.2,12.3c0.5,0.6,0.7,1.5,0.7,2.9V25h-2.5v-9.4c0-0.7-0.1-1.2-0.2-1.5c-0.1-0.3-0.3-0.4-0.7-0.4
		c-0.7,0-1.4,0.4-2,1.3v10h-2.3v-9.4c0-0.7-0.1-1.2-0.2-1.5c-0.1-0.3-0.3-0.4-0.7-0.4c-0.7,0-1.4,0.4-2,1.3v10H31V11.8h2.1l0.2,1.4
		c0.4-0.6,0.8-1,1.3-1.3c0.4-0.3,1-0.5,1.5-0.5c1.2,0,1.9,0.6,2.3,1.7c0.4-0.5,0.8-0.9,1.3-1.2c0.5-0.3,1-0.4,1.6-0.4
		C42.1,11.5,42.8,11.7,43.2,12.3z"/>
	<path class="st1" d="M58.5,18.4c0,2.1-0.4,3.8-1.3,5c-0.9,1.3-2.1,1.9-3.8,1.9c-1.4,0-2.5-0.5-3.4-1.5v6.2l-2.8,0.3V11.8h2.4
		l0.2,1.7c0.5-0.7,1.1-1.2,1.7-1.5c0.7-0.3,1.4-0.5,2.1-0.5C56.9,11.5,58.5,13.8,58.5,18.4z M51.3,14.1c-0.5,0.3-0.9,0.8-1.3,1.4
		v6.2c0.6,1,1.5,1.5,2.6,1.5c1,0,1.7-0.4,2.2-1.2s0.7-2,0.7-3.6c0-1.7-0.2-2.9-0.6-3.7c-0.4-0.8-1.1-1.1-2-1.1
		C52.3,13.6,51.8,13.8,51.3,14.1z"/>
	<path class="st1" d="M65.1,6.2V25h-2.8V6.5L65.1,6.2z M73.8,11.8l-5.3,5.9l5.9,7.3H71l-5.7-7.2l5.3-6H73.8z"/>
	<path class="st1" d="M84.4,11.8V23H88v2H77.7v-2h3.9v-9.1h-3.8v-2H84.4z M83.8,5.8c0.3,0.3,0.5,0.8,0.5,1.3S84.2,8,83.8,8.3
		c-0.3,0.3-0.8,0.5-1.3,0.5c-0.5,0-1-0.2-1.3-0.5c-0.3-0.3-0.5-0.8-0.5-1.3c0-0.5,0.2-0.9,0.5-1.3c0.3-0.3,0.8-0.5,1.3-0.5
		C83,5.3,83.5,5.5,83.8,5.8z"/>
	<path class="st1" d="M92.2,11.8h2.4l0.2,1.7c0.5-0.7,1.2-1.2,1.9-1.5c0.7-0.4,1.5-0.5,2.3-0.5c1.2,0,2.1,0.3,2.8,1
		c0.6,0.7,0.9,1.7,0.9,2.9V25H100v-8.2c0-0.8,0-1.4-0.1-1.9s-0.3-0.8-0.5-1c-0.3-0.2-0.7-0.3-1.2-0.3c-0.6,0-1.2,0.2-1.7,0.6
		c-0.5,0.4-1,0.8-1.4,1.4V25h-2.8V11.8z"/>
	<path class="st1" d="M114.1,22.7c0.5-0.3,0.8-0.8,0.8-1.3c0-0.4-0.1-0.7-0.2-0.9c-0.1-0.2-0.4-0.5-0.9-0.7c-0.5-0.2-1.1-0.4-2-0.7
		c-1.5-0.4-2.5-0.8-3.3-1.4s-1.1-1.4-1.1-2.5c0-1.2,0.5-2.1,1.4-2.8c1-0.7,2.2-1,3.9-1c2,0,3.6,0.5,5,1.5l-1.2,1.8
		c-1.2-0.8-2.4-1.2-3.8-1.2c-1.7,0-2.5,0.5-2.5,1.5c0,0.3,0.1,0.6,0.3,0.8c0.2,0.2,0.5,0.4,1,0.6c0.5,0.2,1.2,0.4,2.1,0.7
		c1.4,0.4,2.5,0.9,3.2,1.5c0.7,0.6,1.1,1.5,1.1,2.6c0,1.4-0.6,2.4-1.7,3.1c-1.1,0.7-2.5,1-4.1,1c-2.2,0-4-0.6-5.4-1.9l1.5-1.7
		c0.5,0.4,1.2,0.8,1.8,1c0.7,0.3,1.4,0.4,2.1,0.4C112.9,23.2,113.6,23,114.1,22.7z"/>
</g>
<g class="st0">
	<path class="st1" d="M128,25.3c-4.2,0-6.9-1.9-6.9-9c0-7,2.7-8.9,6.9-8.9c3.3,0,5,1.3,6.2,3.5l-3.3,1.9c-0.5-1.3-1.5-2.3-2.8-2.3
		c-1.8,0-2.9,0.9-2.9,5.9c0,5,1.1,5.9,2.9,5.9c1.9,0,2.5-1.7,2.8-2.4l3.5,1.8C132.9,24.3,130.8,25.3,128,25.3z"/>
	<path class="st1" d="M149,20.1c0,3.9-3.2,5.2-6.7,5.2c-3.3,0-5.6-1.2-6.7-3.6l3.3-1.6c0.6,1.3,1.7,2.1,3.4,2.1c1.5,0,2.8-0.6,2.8-2
		c0-1.3-1.4-2-3-2.5c-1.7-0.6-5.6-1.9-5.6-5.7c0-3.4,3.2-4.6,6.4-4.6c2.7,0,5.1,1.2,6,3.5l-3,1.6c-0.6-1.3-1.6-2.1-3-2.1
		c-1.4,0-2.4,0.5-2.4,1.6c0,0.9,0.8,1.8,2.1,2.2C144.7,15,149,16,149,20.1z"/>
	<path class="st1" d="M156.3,19.3V25h-3.8V7.5h5.8c2.1,0,5.7,0.3,5.7,5.5c0,5.8-3.6,6.2-5.7,6.2H156.3z M156.3,16.2h1.3
		c1.6,0,2.5-0.3,2.5-2.9c0-2.3-0.9-2.7-2.5-2.7h-1.3V16.2z"/>
	<path class="st1" d="M179.6,12.8l-1,3.1c-0.1-0.1-0.8-0.5-1.8-0.5c-1.3,0-2.3,0.3-2.8,0.9V22h3.5v3h-9.9v-3h2.5v-6.4h-2.5v-3h5.1
		l0.6,1.3c0.9-1,2.2-1.6,3.9-1.6C178.8,12.2,179.3,12.6,179.6,12.8z"/>
	<path class="st1" d="M193.8,19.9h-8.2c0.2,1.5,0.8,2.3,2.3,2.3c1.2,0,1.9-0.3,2.5-1.2l3,1.7c-1,1.6-3.1,2.6-5.5,2.6
		c-3.8,0-6.1-2.5-6.1-6.5c0-4.1,2.4-6.5,6.1-6.5C192.1,12.2,194.1,15.1,193.8,19.9z M190.4,17.5c0-1.3-0.8-2.2-2.3-2.2
		c-1.3,0-2.1,0.6-2.4,2.2H190.4z"/>
	<path class="st1" d="M208.7,18.8c0,4.6-2,6.5-5.4,6.5c-1.1,0-2-0.4-2.7-1V30h-3.8V12.5h2.6l1,1.4c0.8-1,1.9-1.7,3.2-1.7
		C207,12.2,208.7,14.2,208.7,18.8z M204.9,18.8c0-2.7-0.8-3.5-2.3-3.5c-0.9,0-1.6,0.5-2,1v5.2c0.3,0.4,0.8,0.7,1.7,0.7
		C203.9,22.2,204.9,21.5,204.9,18.8z"/>
</g>
<g class="st0">
	<path class="st1" d="M229.4,23.8h8.1V25h-10.1v-1.2c1.5-1.2,3-2.4,4-3.5c2.9-2.8,4.7-5.6,4.7-8c0-2.1-1.2-3.8-3.6-3.8
		c-1.6,0-3.2,0.8-3.8,2l-1.3-0.7c1.1-1.6,3.1-2.5,5.2-2.5c3.3,0,4.9,2.3,4.9,5c0,2.9-2.1,5.9-5.2,8.8
		C231.3,22.2,229.7,23.6,229.4,23.8z"/>
	<path class="st1" d="M242.4,16.3c0-7,2.5-8.9,5.1-8.9c2.4,0,5.1,1.9,5.1,8.9c0,7-2.7,9-5.1,9C245,25.3,242.4,23.3,242.4,16.3z
		 M251.3,16.3c0-5.6-1.7-7.7-3.8-7.7c-2.1,0-3.8,2.2-3.8,7.7c0,5.6,1.7,7.8,3.8,7.8C249.6,24.1,251.3,21.9,251.3,16.3z M246.4,16.3
		c0-1.4,0.6-1.7,1.2-1.7c0.5,0,1.1,0.4,1.1,1.7c0,1.4-0.6,1.8-1.1,1.8C247,18.1,246.4,17.7,246.4,16.3z"/>
	<path class="st1" d="M259.4,23.8h8.1V25h-10.1v-1.2c1.5-1.2,3-2.4,4-3.5c2.9-2.8,4.7-5.6,4.7-8c0-2.1-1.2-3.8-3.6-3.8
		c-1.6,0-3.2,0.8-3.8,2l-1.3-0.7c1-1.6,3.1-2.5,5.2-2.5c3.3,0,4.9,2.3,4.9,5c0,2.9-2.1,5.9-5.2,8.8
		C261.3,22.2,259.7,23.6,259.4,23.8z"/>
	<path class="st1" d="M272.4,16.3c0-7,2.5-8.9,5.1-8.9c2.4,0,5.1,1.9,5.1,8.9c0,7-2.7,9-5.1,9C275,25.3,272.4,23.3,272.4,16.3z
		 M281.3,16.3c0-5.6-1.8-7.7-3.8-7.7c-2.1,0-3.8,2.2-3.8,7.7c0,5.6,1.7,7.8,3.8,7.8C279.6,24.1,281.3,21.9,281.3,16.3z M276.4,16.3
		c0-1.4,0.6-1.7,1.2-1.7c0.5,0,1.1,0.4,1.1,1.7c0,1.4-0.6,1.8-1.1,1.8C277,18.1,276.4,17.7,276.4,16.3z"/>
</g>
</svg>
