<svg xmlns="http://www.w3.org/2000/svg" width="145.889" height="133.679" viewBox="0 0 145.889 133.679">
  <path id="iconmonstr-help-6" d="M71,12.833c18.106,0,34.339,6.546,45.414,17.04,8.5,8.05,13.753,18.71,13.753,30.334,0,29.092-30.441,47.1-58.634,47.1-11.461,0-20.016-2.349-26-3.81-5.917,3.627-9.437,6.136-25.276,10.768a55.376,55.376,0,0,0,3.562-25.235c-4.958-5.917-11.981-14.2-11.981-28.826C11.833,34.086,38.376,12.833,71,12.833ZM71,1C33.5,1,0,26,0,60.208A52.135,52.135,0,0,0,12.111,93.489c.325,10.827-6.053,26.365-11.792,37.677,15.4-2.781,37.281-8.922,47.2-15a101.492,101.492,0,0,0,24.016,2.976c41.914,0,70.468-28.619,70.468-58.936C142,25.82,108.269,1,71,1Zm6.059,82.685A6.059,6.059,0,1,1,71,77.627,6.06,6.06,0,0,1,77.059,83.685ZM83.81,35.216c-2.947-2.988-7.343-4.633-12.366-4.633-10.567,0-17.4,7.52-17.4,19.152h9.745c0-7.2,4.023-9.757,7.461-9.757a6.408,6.408,0,0,1,6.609,5.94c.308,4.106-1.887,6.189-4.662,8.834-6.846,6.508-6.976,9.662-6.94,16.815h9.721c-.059-3.219.148-5.834,4.532-10.561,3.284-3.538,7.366-7.94,7.449-14.656A15.167,15.167,0,0,0,83.81,35.216Z" transform="translate(2.383 0.5)" fill="none" stroke="#121213" stroke-width="3"/>
</svg>
